<mxfile host="app.diagrams.net" agent="Mozilla/5.0 (X11; Ubuntu; Linux x86_64; rv:132.0) Gecko/20100101 Firefox/132.0" version="24.8.3">
  <diagram name="Page-1" id="lkaQQm8wlJR-6-mVNlB-">
    <mxGraphModel dx="1119" dy="634" grid="1" gridSize="10" guides="1" tooltips="1" connect="1" arrows="1" fold="1" page="1" pageScale="1" pageWidth="827" pageHeight="1169" math="0" shadow="0">
      <root>
        <mxCell id="0" />
        <mxCell id="1" parent="0" />
        <mxCell id="zFpu8qE0W1egqKPuqhcQ-36" style="edgeStyle=orthogonalEdgeStyle;rounded=0;orthogonalLoop=1;jettySize=auto;html=1;exitX=1;exitY=0.3333333333333333;exitDx=0;exitDy=0;exitPerimeter=0;entryX=0.5;entryY=0;entryDx=0;entryDy=0;" edge="1" parent="1" source="zFpu8qE0W1egqKPuqhcQ-1" target="zFpu8qE0W1egqKPuqhcQ-4">
          <mxGeometry relative="1" as="geometry" />
        </mxCell>
        <mxCell id="zFpu8qE0W1egqKPuqhcQ-37" style="edgeStyle=orthogonalEdgeStyle;rounded=0;orthogonalLoop=1;jettySize=auto;html=1;exitX=1;exitY=0.3333333333333333;exitDx=0;exitDy=0;exitPerimeter=0;entryX=0.5;entryY=0;entryDx=0;entryDy=0;" edge="1" parent="1" source="zFpu8qE0W1egqKPuqhcQ-1" target="zFpu8qE0W1egqKPuqhcQ-7">
          <mxGeometry relative="1" as="geometry" />
        </mxCell>
        <mxCell id="zFpu8qE0W1egqKPuqhcQ-38" style="edgeStyle=orthogonalEdgeStyle;rounded=0;orthogonalLoop=1;jettySize=auto;html=1;exitX=1;exitY=0.3333333333333333;exitDx=0;exitDy=0;exitPerimeter=0;entryX=0.5;entryY=0;entryDx=0;entryDy=0;" edge="1" parent="1" source="zFpu8qE0W1egqKPuqhcQ-1" target="zFpu8qE0W1egqKPuqhcQ-10">
          <mxGeometry relative="1" as="geometry" />
        </mxCell>
        <mxCell id="zFpu8qE0W1egqKPuqhcQ-39" style="edgeStyle=orthogonalEdgeStyle;rounded=0;orthogonalLoop=1;jettySize=auto;html=1;exitX=1;exitY=0.3333333333333333;exitDx=0;exitDy=0;exitPerimeter=0;entryX=0.5;entryY=0;entryDx=0;entryDy=0;" edge="1" parent="1" source="zFpu8qE0W1egqKPuqhcQ-1" target="zFpu8qE0W1egqKPuqhcQ-12">
          <mxGeometry relative="1" as="geometry" />
        </mxCell>
        <mxCell id="zFpu8qE0W1egqKPuqhcQ-50" style="edgeStyle=orthogonalEdgeStyle;rounded=0;orthogonalLoop=1;jettySize=auto;html=1;exitX=1;exitY=0.3333333333333333;exitDx=0;exitDy=0;exitPerimeter=0;entryX=0.5;entryY=0;entryDx=0;entryDy=0;" edge="1" parent="1" source="zFpu8qE0W1egqKPuqhcQ-1" target="zFpu8qE0W1egqKPuqhcQ-49">
          <mxGeometry relative="1" as="geometry" />
        </mxCell>
        <mxCell id="zFpu8qE0W1egqKPuqhcQ-1" value="&lt;div&gt;Visitor&lt;/div&gt;&lt;div&gt;Company&lt;br&gt;&lt;/div&gt;" style="shape=umlActor;verticalLabelPosition=bottom;verticalAlign=top;html=1;" vertex="1" parent="1">
          <mxGeometry x="40" y="40" width="30" height="60" as="geometry" />
        </mxCell>
        <mxCell id="zFpu8qE0W1egqKPuqhcQ-4" value="access to the directory" style="ellipse;whiteSpace=wrap;html=1;" vertex="1" parent="1">
          <mxGeometry x="110" y="120" width="120" height="80" as="geometry" />
        </mxCell>
        <mxCell id="zFpu8qE0W1egqKPuqhcQ-7" value="look for students" style="ellipse;whiteSpace=wrap;html=1;" vertex="1" parent="1">
          <mxGeometry x="246" y="120" width="120" height="80" as="geometry" />
        </mxCell>
        <mxCell id="zFpu8qE0W1egqKPuqhcQ-10" value="contact students" style="ellipse;whiteSpace=wrap;html=1;" vertex="1" parent="1">
          <mxGeometry x="386" y="120" width="120" height="80" as="geometry" />
        </mxCell>
        <mxCell id="zFpu8qE0W1egqKPuqhcQ-12" value="contact emisa" style="ellipse;whiteSpace=wrap;html=1;" vertex="1" parent="1">
          <mxGeometry x="523" y="120" width="120" height="80" as="geometry" />
        </mxCell>
        <mxCell id="zFpu8qE0W1egqKPuqhcQ-41" style="edgeStyle=orthogonalEdgeStyle;rounded=0;orthogonalLoop=1;jettySize=auto;html=1;exitX=0;exitY=0.3333333333333333;exitDx=0;exitDy=0;exitPerimeter=0;entryX=0.5;entryY=0;entryDx=0;entryDy=0;" edge="1" parent="1" source="zFpu8qE0W1egqKPuqhcQ-20" target="zFpu8qE0W1egqKPuqhcQ-29">
          <mxGeometry relative="1" as="geometry" />
        </mxCell>
        <mxCell id="zFpu8qE0W1egqKPuqhcQ-42" style="edgeStyle=orthogonalEdgeStyle;rounded=0;orthogonalLoop=1;jettySize=auto;html=1;exitX=0;exitY=0.3333333333333333;exitDx=0;exitDy=0;exitPerimeter=0;entryX=0.5;entryY=0;entryDx=0;entryDy=0;" edge="1" parent="1" source="zFpu8qE0W1egqKPuqhcQ-20" target="zFpu8qE0W1egqKPuqhcQ-22">
          <mxGeometry relative="1" as="geometry" />
        </mxCell>
        <mxCell id="zFpu8qE0W1egqKPuqhcQ-52" style="edgeStyle=orthogonalEdgeStyle;rounded=0;orthogonalLoop=1;jettySize=auto;html=1;exitX=0;exitY=0.3333333333333333;exitDx=0;exitDy=0;exitPerimeter=0;entryX=0.5;entryY=0;entryDx=0;entryDy=0;" edge="1" parent="1" source="zFpu8qE0W1egqKPuqhcQ-20" target="zFpu8qE0W1egqKPuqhcQ-51">
          <mxGeometry relative="1" as="geometry" />
        </mxCell>
        <mxCell id="zFpu8qE0W1egqKPuqhcQ-20" value="Administrator" style="shape=umlActor;verticalLabelPosition=bottom;verticalAlign=top;html=1;" vertex="1" parent="1">
          <mxGeometry x="643" y="300" width="30" height="60" as="geometry" />
        </mxCell>
        <mxCell id="zFpu8qE0W1egqKPuqhcQ-22" value="receive form/contact" style="ellipse;whiteSpace=wrap;html=1;" vertex="1" parent="1">
          <mxGeometry x="110" y="360" width="140" height="80" as="geometry" />
        </mxCell>
        <mxCell id="zFpu8qE0W1egqKPuqhcQ-44" style="edgeStyle=orthogonalEdgeStyle;rounded=0;orthogonalLoop=1;jettySize=auto;html=1;exitX=1;exitY=0.3333333333333333;exitDx=0;exitDy=0;exitPerimeter=0;entryX=0.5;entryY=1;entryDx=0;entryDy=0;" edge="1" parent="1" source="zFpu8qE0W1egqKPuqhcQ-27" target="zFpu8qE0W1egqKPuqhcQ-22">
          <mxGeometry relative="1" as="geometry" />
        </mxCell>
        <mxCell id="zFpu8qE0W1egqKPuqhcQ-46" style="edgeStyle=orthogonalEdgeStyle;rounded=0;orthogonalLoop=1;jettySize=auto;html=1;exitX=1;exitY=0.3333333333333333;exitDx=0;exitDy=0;exitPerimeter=0;entryX=0.5;entryY=1;entryDx=0;entryDy=0;" edge="1" parent="1" source="zFpu8qE0W1egqKPuqhcQ-27" target="zFpu8qE0W1egqKPuqhcQ-29">
          <mxGeometry relative="1" as="geometry" />
        </mxCell>
        <mxCell id="zFpu8qE0W1egqKPuqhcQ-53" style="edgeStyle=orthogonalEdgeStyle;rounded=0;orthogonalLoop=1;jettySize=auto;html=1;exitX=1;exitY=0.3333333333333333;exitDx=0;exitDy=0;exitPerimeter=0;entryX=0.5;entryY=1;entryDx=0;entryDy=0;" edge="1" parent="1" source="zFpu8qE0W1egqKPuqhcQ-27" target="zFpu8qE0W1egqKPuqhcQ-51">
          <mxGeometry relative="1" as="geometry" />
        </mxCell>
        <mxCell id="zFpu8qE0W1egqKPuqhcQ-27" value="Students&lt;br&gt;&lt;div&gt;(new and old) &lt;br&gt;&lt;/div&gt;" style="shape=umlActor;verticalLabelPosition=bottom;verticalAlign=top;html=1;" vertex="1" parent="1">
          <mxGeometry x="40" y="460" width="30" height="60" as="geometry" />
        </mxCell>
        <mxCell id="zFpu8qE0W1egqKPuqhcQ-29" value="&lt;div&gt;add and delete&lt;br&gt;students/profile&lt;/div&gt;" style="ellipse;whiteSpace=wrap;html=1;verticalAlign=middle;" vertex="1" parent="1">
          <mxGeometry x="270" y="360" width="140" height="80" as="geometry" />
        </mxCell>
        <mxCell id="zFpu8qE0W1egqKPuqhcQ-49" value="like a student profile" style="ellipse;whiteSpace=wrap;html=1;" vertex="1" parent="1">
          <mxGeometry x="660" y="120" width="120" height="80" as="geometry" />
        </mxCell>
        <mxCell id="zFpu8qE0W1egqKPuqhcQ-51" value="update profile" style="ellipse;whiteSpace=wrap;html=1;verticalAlign=middle;" vertex="1" parent="1">
          <mxGeometry x="430" y="360" width="140" height="80" as="geometry" />
        </mxCell>
      </root>
    </mxGraphModel>
  </diagram>
</mxfile>
